<svg xmlns="http://www.w3.org/2000/svg" viewBox="0 0 345.186 24.639"><defs><linearGradient id="a" x1="0" y1="12.319" x2="345.186" y2="12.319" gradientUnits="userSpaceOnUse"><stop offset="0" stop-color="#4f2db8"/><stop offset="1" stop-color="#a14381"/></linearGradient></defs><g fill="url(#a)"><path d="M11.336 8.655c-.41.771-1.066 1.398-1.967 1.881-.902.484-2.058.726-3.467.726H2.804v6.934H0V1.106h5.901c1.312 0 2.422.226 3.332.676.91.451 1.59 1.062 2.041 1.832.451.771.676 1.631.676 2.582 0 .869-.205 1.689-.615 2.459zM8.287 8.25c.524-.483.787-1.168.787-2.053 0-1.869-1.058-2.803-3.172-2.803H2.804v5.582h3.098c1.065 0 1.86-.242 2.385-.726zM17.04 17.544a6.263 6.263 0 01-2.434-2.459c-.59-1.057-.885-2.282-.885-3.676 0-1.377.303-2.598.91-3.664a6.286 6.286 0 012.483-2.459c1.049-.574 2.221-.861 3.517-.861s2.467.287 3.516.861a6.295 6.295 0 012.484 2.459c.606 1.066.91 2.287.91 3.664s-.312 2.598-.935 3.664a6.459 6.459 0 01-2.545 2.471c-1.074.583-2.258.873-3.553.873-1.279 0-2.435-.291-3.467-.873zm5.496-2.077c.631-.344 1.143-.861 1.537-1.549s.59-1.524.59-2.508-.189-1.815-.565-2.496c-.377-.68-.877-1.192-1.5-1.537-.624-.344-1.295-.517-2.017-.517s-1.389.172-2.004.517-1.103.856-1.463 1.537c-.361.681-.541 1.512-.541 2.496 0 1.459.373 2.586 1.119 3.381.746.795 1.684 1.193 2.815 1.193.721 0 1.397-.172 2.029-.517zM33.122 0v18.196h-2.803V0h2.803zM42.17 11.434l6.246 6.762h-3.787l-5.016-5.828v5.828H36.81V0h2.803v10.573l4.918-5.926h3.885l-6.246 6.787zM50.347 7.746c.565-1.049 1.336-1.865 2.312-2.447.975-.582 2.053-.873 3.233-.873 1.065 0 1.996.209 2.791.627.795.418 1.43.938 1.906 1.561V4.647h2.828v13.549h-2.828v-2.017c-.476.64-1.123 1.172-1.943 1.599s-1.754.639-2.803.639a5.963 5.963 0 01-3.197-.897c-.967-.598-1.733-1.434-2.299-2.508-.566-1.073-.849-2.291-.849-3.651s.283-2.565.849-3.615zm9.663 1.229c-.385-.688-.889-1.213-1.512-1.574-.623-.36-1.295-.541-2.016-.541s-1.394.176-2.017.529-1.127.869-1.512 1.549c-.385.681-.578 1.488-.578 2.422s.193 1.754.578 2.459c.385.705.893 1.242 1.524 1.611a3.908 3.908 0 002.004.553c.721 0 1.393-.18 2.016-.541.623-.36 1.127-.889 1.512-1.586.385-.696.578-1.512.578-2.446s-.193-1.746-.578-2.435zM67.018 7.746c.565-1.049 1.336-1.865 2.312-2.447.975-.582 2.061-.873 3.258-.873.885 0 1.758.193 2.619.578.86.385 1.545.897 2.053 1.537V0h2.828v18.196H77.26v-2.041c-.459.656-1.094 1.197-1.906 1.623s-1.742.639-2.791.639a6.064 6.064 0 01-3.233-.897c-.976-.598-1.746-1.434-2.312-2.508-.566-1.073-.849-2.291-.849-3.651s.283-2.565.849-3.615zm9.664 1.229c-.385-.688-.889-1.213-1.512-1.574-.623-.36-1.295-.541-2.016-.541s-1.394.176-2.017.529-1.127.869-1.512 1.549c-.385.681-.578 1.488-.578 2.422s.193 1.754.578 2.459c.385.705.893 1.242 1.524 1.611a3.908 3.908 0 002.004.553c.721 0 1.393-.18 2.016-.541.623-.36 1.127-.889 1.512-1.586.385-.696.578-1.512.578-2.446s-.193-1.746-.578-2.435zM86.186 17.544a6.263 6.263 0 01-2.434-2.459c-.59-1.057-.885-2.282-.885-3.676 0-1.377.303-2.598.91-3.664a6.286 6.286 0 012.483-2.459c1.049-.574 2.221-.861 3.517-.861s2.467.287 3.516.861a6.295 6.295 0 012.484 2.459c.606 1.066.91 2.287.91 3.664s-.312 2.598-.935 3.664a6.459 6.459 0 01-2.545 2.471c-1.074.583-2.258.873-3.553.873-1.279 0-2.435-.291-3.467-.873zm5.496-2.077c.631-.344 1.143-.861 1.537-1.549s.59-1.524.59-2.508-.189-1.815-.565-2.496c-.377-.68-.877-1.192-1.5-1.537-.624-.344-1.295-.517-2.017-.517s-1.389.172-2.004.517-1.103.856-1.463 1.537c-.361.681-.541 1.512-.541 2.496 0 1.459.373 2.586 1.119 3.381.746.795 1.684 1.193 2.815 1.193.721 0 1.397-.172 2.029-.517zM102.734 6.934v7.5c0 .508.119.873.356 1.094.237.221.643.332 1.217.332h1.721v2.336h-2.213c-1.263 0-2.23-.295-2.902-.885-.672-.59-1.008-1.549-1.008-2.877v-7.5h-1.598V4.647h1.598V1.278h2.828v3.369h3.295v2.287h-3.295zM125.369 2.151c1.369.697 2.426 1.697 3.172 3s1.119 2.824 1.119 4.562-.373 3.246-1.119 4.524c-.746 1.279-1.803 2.258-3.172 2.938-1.369.681-2.963 1.021-4.783 1.021h-5.582V1.106h5.582c1.819 0 3.414.349 4.783 1.045zm-.184 12.136c1.065-1.082 1.598-2.606 1.598-4.574 0-1.983-.533-3.533-1.598-4.647-1.066-1.115-2.599-1.672-4.598-1.672h-2.779v12.517h2.779c2 0 3.532-.541 4.598-1.623zM144.758 12.467h-10.352c.082 1.082.483 1.951 1.205 2.606.721.656 1.606.984 2.656.984 1.508 0 2.574-.631 3.197-1.894h3.024a6.109 6.109 0 01-2.225 3.062c-1.074.795-2.406 1.192-3.996 1.192-1.295 0-2.455-.291-3.479-.873a6.212 6.212 0 01-2.41-2.459c-.582-1.057-.873-2.282-.873-3.676s.283-2.619.849-3.676a5.958 5.958 0 012.385-2.447c1.024-.574 2.201-.861 3.528-.861 1.279 0 2.418.279 3.418.836s1.779 1.34 2.336 2.348c.557 1.008.836 2.168.836 3.479 0 .508-.033.967-.099 1.377zm-2.828-2.262c-.017-1.033-.385-1.86-1.106-2.483-.722-.623-1.615-.935-2.681-.935-.967 0-1.795.308-2.483.922s-1.099 1.447-1.229 2.496h7.5zM152.848 15.688l3.836-11.041h2.975l-5.164 13.549h-3.344l-5.139-13.549h3l3.836 11.041zM174.093 12.467h-10.352c.082 1.082.483 1.951 1.205 2.606.721.656 1.606.984 2.656.984 1.508 0 2.574-.631 3.197-1.894h3.024a6.109 6.109 0 01-2.225 3.062c-1.074.795-2.406 1.192-3.996 1.192-1.295 0-2.455-.291-3.479-.873a6.212 6.212 0 01-2.41-2.459c-.582-1.057-.873-2.282-.873-3.676s.283-2.619.849-3.676a5.958 5.958 0 012.385-2.447c1.024-.574 2.201-.861 3.528-.861 1.279 0 2.418.279 3.418.836s1.779 1.34 2.336 2.348c.557 1.008.836 2.168.836 3.479 0 .508-.033.967-.099 1.377zm-2.828-2.262c-.017-1.033-.385-1.86-1.106-2.483-.722-.623-1.615-.935-2.681-.935-.967 0-1.795.308-2.483.922s-1.099 1.447-1.229 2.496h7.5zM179.749 0v18.196h-2.803V0h2.803zM185.846 17.544a6.263 6.263 0 01-2.434-2.459c-.59-1.057-.885-2.282-.885-3.676 0-1.377.303-2.598.91-3.664a6.286 6.286 0 012.483-2.459c1.049-.574 2.221-.861 3.517-.861s2.467.287 3.516.861a6.295 6.295 0 012.484 2.459c.606 1.066.91 2.287.91 3.664s-.312 2.598-.935 3.664a6.459 6.459 0 01-2.545 2.471c-1.074.583-2.258.873-3.553.873-1.279 0-2.435-.291-3.467-.873zm5.496-2.077c.631-.344 1.143-.861 1.537-1.549s.59-1.524.59-2.508-.189-1.815-.565-2.496c-.377-.68-.877-1.192-1.5-1.537-.624-.344-1.295-.517-2.017-.517s-1.389.172-2.004.517-1.103.856-1.463 1.537c-.361.681-.541 1.512-.541 2.496 0 1.459.373 2.586 1.119 3.381.746.795 1.684 1.193 2.815 1.193.721 0 1.397-.172 2.029-.517zM203.87 5.065c.82-.426 1.746-.64 2.779-.64a6.2 6.2 0 013.233.873c.976.582 1.742 1.398 2.299 2.447.557 1.049.836 2.254.836 3.615s-.279 2.578-.836 3.651c-.558 1.074-1.324 1.91-2.299 2.508a6.055 6.055 0 01-3.233.897c-1.033 0-1.951-.209-2.754-.627-.804-.418-1.459-.938-1.967-1.562v8.41h-2.803V4.647h2.803v1.992c.475-.623 1.123-1.147 1.942-1.574zm5.717 3.873c-.385-.68-.894-1.196-1.524-1.549a4.091 4.091 0 00-2.029-.529c-.705 0-1.373.181-2.004.541-.631.361-1.14.885-1.525 1.574s-.578 1.5-.578 2.435.192 1.75.578 2.446c.385.697.894 1.226 1.525 1.586a3.974 3.974 0 002.004.541c.721 0 1.397-.185 2.029-.553.631-.369 1.139-.906 1.524-1.611s.578-1.524.578-2.459-.193-1.742-.578-2.422zM228.116 12.467h-10.352c.082 1.082.483 1.951 1.205 2.606.721.656 1.606.984 2.656.984 1.508 0 2.574-.631 3.197-1.894h3.024a6.109 6.109 0 01-2.225 3.062c-1.074.795-2.406 1.192-3.996 1.192-1.295 0-2.455-.291-3.479-.873a6.212 6.212 0 01-2.41-2.459c-.582-1.057-.873-2.282-.873-3.676s.283-2.619.849-3.676a5.958 5.958 0 012.385-2.447c1.024-.574 2.201-.861 3.528-.861 1.279 0 2.418.279 3.418.836s1.779 1.34 2.336 2.348c.557 1.008.836 2.168.836 3.479 0 .508-.033.967-.099 1.377zm-2.828-2.262c-.017-1.033-.385-1.86-1.106-2.483-.722-.623-1.615-.935-2.681-.935-.967 0-1.795.308-2.483.922s-1.099 1.447-1.229 2.496h7.5zM235.406 5.004c.68-.385 1.488-.578 2.422-.578v2.902h-.713c-1.099 0-1.93.279-2.496.836-.565.558-.848 1.524-.848 2.902v7.131h-2.803V4.647h2.803v1.967a4.406 4.406 0 011.635-1.61zM247.037 5.115a8.32 8.32 0 013.172-3.111c1.336-.746 2.799-1.119 4.389-1.119 1.82 0 3.438.447 4.856 1.34 1.418.894 2.447 2.16 3.086 3.799h-3.369c-.442-.901-1.057-1.574-1.844-2.017-.787-.442-1.697-.664-2.729-.664-1.131 0-2.139.254-3.024.762-.885.508-1.578 1.238-2.078 2.188s-.75 2.058-.75 3.319.25 2.369.75 3.32 1.193 1.685 2.078 2.201c.885.517 1.894.775 3.024.775 1.033 0 1.943-.222 2.729-.664.787-.443 1.402-1.115 1.844-2.017h3.369c-.639 1.64-1.668 2.902-3.086 3.787s-3.037 1.328-4.856 1.328c-1.607 0-3.074-.373-4.401-1.119a8.344 8.344 0 01-3.16-3.111c-.779-1.328-1.168-2.828-1.168-4.5s.389-3.172 1.168-4.5zM268.221 17.544a6.263 6.263 0 01-2.434-2.459c-.59-1.057-.885-2.282-.885-3.676 0-1.377.303-2.598.91-3.664a6.286 6.286 0 012.483-2.459c1.049-.574 2.221-.861 3.517-.861s2.467.287 3.516.861a6.295 6.295 0 012.484 2.459c.606 1.066.91 2.287.91 3.664s-.312 2.598-.935 3.664a6.459 6.459 0 01-2.545 2.471c-1.074.583-2.258.873-3.553.873-1.279 0-2.435-.291-3.467-.873zm5.496-2.077c.631-.344 1.143-.861 1.537-1.549s.59-1.524.59-2.508-.189-1.815-.565-2.496c-.377-.68-.877-1.192-1.5-1.537-.624-.344-1.295-.517-2.017-.517s-1.389.172-2.004.517-1.103.856-1.463 1.537c-.361.681-.541 1.512-.541 2.496 0 1.459.373 2.586 1.119 3.381.746.795 1.684 1.193 2.815 1.193.721 0 1.397-.172 2.029-.517zM291.2 5.09a4.726 4.726 0 011.979 1.967c.475.869.713 1.918.713 3.147v7.992h-2.778v-7.574c0-1.213-.304-2.143-.91-2.791-.606-.647-1.435-.971-2.483-.971s-1.881.324-2.496.971c-.615.648-.922 1.578-.922 2.791v7.574H281.5V4.647h2.803v1.549a4.639 4.639 0 011.758-1.303 5.626 5.626 0 012.274-.467c1.065 0 2.02.222 2.865.664zM299.511 17.84c-.845-.385-1.512-.91-2.004-1.574a3.924 3.924 0 01-.787-2.226h2.902c.049.574.323 1.054.824 1.438.5.385 1.127.578 1.881.578.787 0 1.397-.151 1.832-.455.434-.303.652-.692.652-1.168 0-.508-.242-.885-.726-1.131s-1.25-.516-2.299-.811c-1.017-.279-1.844-.549-2.483-.812s-1.192-.664-1.66-1.205-.701-1.254-.701-2.139c0-.721.213-1.381.64-1.979.426-.598 1.037-1.07 1.832-1.414.795-.344 1.709-.517 2.742-.517 1.541 0 2.782.39 3.725 1.168.942.779 1.447 1.84 1.512 3.184h-2.803c-.049-.606-.295-1.09-.737-1.451-.443-.36-1.042-.541-1.795-.541-.738 0-1.303.14-1.697.418-.393.279-.59.648-.59 1.106 0 .361.131.664.394.91.262.246.582.438.959.578.377.14.934.316 1.672.529.983.262 1.791.529 2.422.799.631.27 1.176.668 1.635 1.192.459.525.697 1.221.713 2.09 0 .771-.213 1.459-.639 2.065-.427.606-1.029 1.082-1.808 1.426-.779.344-1.693.516-2.742.516-1.066 0-2.021-.193-2.865-.578zM312.998 17.544a6.263 6.263 0 01-2.434-2.459c-.59-1.057-.885-2.282-.885-3.676 0-1.377.303-2.598.91-3.664a6.286 6.286 0 012.483-2.459c1.049-.574 2.221-.861 3.517-.861s2.467.287 3.516.861a6.295 6.295 0 012.484 2.459c.606 1.066.91 2.287.91 3.664s-.312 2.598-.935 3.664a6.459 6.459 0 01-2.545 2.471c-1.074.583-2.258.873-3.553.873-1.279 0-2.435-.291-3.467-.873zm5.496-2.077c.631-.344 1.143-.861 1.537-1.549s.59-1.524.59-2.508-.189-1.815-.565-2.496c-.377-.68-.877-1.192-1.5-1.537-.624-.344-1.295-.517-2.017-.517s-1.389.172-2.004.517-1.103.856-1.463 1.537c-.361.681-.541 1.512-.541 2.496 0 1.459.373 2.586 1.119 3.381.746.795 1.684 1.193 2.815 1.193.721 0 1.397-.172 2.029-.517zM329.08 0v18.196h-2.803V0h2.803zM345.087 12.467h-10.352c.082 1.082.483 1.951 1.205 2.606.721.656 1.606.984 2.656.984 1.508 0 2.574-.631 3.197-1.894h3.024a6.109 6.109 0 01-2.225 3.062c-1.074.795-2.406 1.192-3.996 1.192-1.295 0-2.455-.291-3.479-.873a6.212 6.212 0 01-2.41-2.459c-.582-1.057-.873-2.282-.873-3.676s.283-2.619.849-3.676a5.958 5.958 0 012.385-2.447c1.024-.574 2.201-.861 3.528-.861 1.279 0 2.418.279 3.418.836s1.779 1.34 2.336 2.348c.557 1.008.836 2.168.836 3.479 0 .508-.033.967-.099 1.377zm-2.828-2.262c-.017-1.033-.385-1.86-1.106-2.483-.722-.623-1.615-.935-2.681-.935-.967 0-1.795.308-2.483.922s-1.099 1.447-1.229 2.496h7.5z"/></g></svg>