<svg xmlns="http://www.w3.org/2000/svg" viewBox="0 0 371.031 417"><path d="M219.992 35.297c0 19.494-15.803 35.297-35.297 35.297s-35.297-15.803-35.297-35.297S165.201 0 184.695 0s35.297 15.803 35.297 35.297zM146.114 77.161c0 19.947-16.171 36.118-36.118 36.118S73.878 97.108 73.878 77.161s16.171-36.118 36.118-36.118 36.118 16.171 36.118 36.118z" fill="#000"/><path d="M72.236 121.488c0 19.947-16.171 36.118-36.118 36.118S0 141.436 0 121.488 16.171 85.37 36.118 85.37s36.118 16.171 36.118 36.118z" fill="#000"/><path d="M146.114 164.173c0 19.947-16.171 36.118-36.118 36.118s-36.118-16.171-36.118-36.118 16.171-36.118 36.118-36.118 36.118 16.171 36.118 36.118zM221.634 121.488c0 19.947-16.171 36.118-36.118 36.118s-36.118-16.171-36.118-36.118 16.171-36.118 36.118-36.118 36.118 16.171 36.118 36.118z" fill="#000"/><path d="M295.512 77.161c0 19.947-16.171 36.118-36.118 36.118s-36.118-16.171-36.118-36.118 16.171-36.118 36.118-36.118 36.118 16.171 36.118 36.118zM72.236 206.858c0 19.947-16.171 36.118-36.118 36.118S0 226.806 0 206.858s16.171-36.118 36.118-36.118 36.118 16.171 36.118 36.118z" fill="#000"/><path d="M72.236 293.87c0 19.947-16.171 36.118-36.118 36.118S0 313.818 0 293.87s16.171-36.118 36.118-36.118 36.118 16.171 36.118 36.118z" fill="#000"/><path d="M146.114 251.185c0 19.947-16.171 36.118-36.118 36.118s-36.118-16.171-36.118-36.118 16.171-36.118 36.118-36.118 36.118 16.171 36.118 36.118z" fill="#000"/><path d="M221.634 208.5c0 19.947-16.171 36.118-36.118 36.118s-36.118-16.171-36.118-36.118 16.171-36.118 36.118-36.118 36.118 16.171 36.118 36.118z" fill="#000"/><path d="M295.512 164.173c0 19.947-16.171 36.118-36.118 36.118s-36.118-16.171-36.118-36.118 16.171-36.118 36.118-36.118 36.118 16.171 36.118 36.118z" fill="#000"/><path d="M371.031 121.488c0 19.947-16.171 36.118-36.118 36.118s-36.118-16.171-36.118-36.118 16.171-36.118 36.118-36.118 36.118 16.171 36.118 36.118z" fill="#000"/><path d="M371.031 206.858c0 19.947-16.171 36.118-36.118 36.118s-36.118-16.171-36.118-36.118 16.171-36.118 36.118-36.118 36.118 16.171 36.118 36.118z" fill="#000"/><path d="M297.154 251.185c0 19.947-16.171 36.118-36.118 36.118s-36.118-16.171-36.118-36.118 16.171-36.118 36.118-36.118 36.118 16.171 36.118 36.118zM221.634 293.87c0 19.947-16.171 36.118-36.118 36.118s-36.118-16.171-36.118-36.118 16.171-36.118 36.118-36.118 36.118 16.171 36.118 36.118z" fill="#000"/><path d="M146.114 336.555c0 19.947-16.171 36.118-36.118 36.118s-36.118-16.171-36.118-36.118 16.171-36.118 36.118-36.118 36.118 16.171 36.118 36.118zM221.634 380.882c0 19.947-16.171 36.118-36.118 36.118s-36.118-16.171-36.118-36.118 16.171-36.118 36.118-36.118 36.118 16.171 36.118 36.118zM295.512 336.555c0 19.947-16.171 36.118-36.118 36.118s-36.118-16.171-36.118-36.118 16.171-36.118 36.118-36.118 36.118 16.171 36.118 36.118z" fill="#000"/><path d="M371.031 293.87c0 19.947-16.171 36.118-36.118 36.118s-36.118-16.171-36.118-36.118 16.171-36.118 36.118-36.118 36.118 16.171 36.118 36.118z" fill="#000"/></svg>