<svg xmlns="http://www.w3.org/2000/svg" xmlns:xlink="http://www.w3.org/1999/xlink" viewBox="0 0 464.12 464.122" width="100%" height="100%"><defs><linearGradient id="a" x1="-51.26" y1="604.439" x2="-69.824" y2="623.004" gradientTransform="matrix(25 0 0 -25 1745.596 15575.132)" gradientUnits="userSpaceOnUse"><stop offset="0" stop-color="#6f6f6f"/><stop offset=".714" stop-color="#535353"/><stop offset="1" stop-color="#494949"/></linearGradient><linearGradient id="b" x1="-51.26" y1="604.439" x2="-69.824" y2="623.004" gradientTransform="matrix(25 0 0 -25 1745.614 15575.19)" xlink:href="#a"/></defs><g fill-rule="evenodd"><path d="M256.711 59.512c13.614-13.614 13.614-35.687 0-49.301-13.614-13.614-35.687-13.614-49.301 0l-197.196 197.2c-13.614 13.614-13.614 35.687 0 49.297l98.598 98.598v.004c13.614 13.614 35.683 13.614 49.297 0l172.552-172.552 49.301 49.301L207.41 404.611c-13.614 13.61-13.614 35.683 0 49.301 13.614 13.61 35.687 13.61 49.301 0l197.197-197.204c13.614-13.61 13.614-35.683 0-49.297l-98.598-98.602c-13.614-13.61-35.683-13.61-49.297 0L133.461 281.361 84.16 232.06 256.711 59.512z" style="isolation:isolate" fill="url(#a)" opacity=".2"/><path d="M256.711 404.61c13.614 13.614 13.614 35.687 0 49.301-13.614 13.614-35.687 13.614-49.301 0-13.614-13.614-13.614-35.687 0-49.301 13.614-13.614 35.687-13.614 49.301 0zm-98.6-98.599c13.614 13.614 13.614 35.687 0 49.301-13.614 13.614-35.687 13.614-49.301 0-13.614-13.614-13.614-35.687 0-49.301 13.614-13.614 35.687-13.614 49.301 0zm197.199 0c13.614 13.614 13.614 35.687 0 49.297-13.614 13.618-35.687 13.618-49.301.004-13.614-13.614-13.614-35.687 0-49.301 13.614-13.614 35.687-13.614 49.301 0zM59.512 207.413c13.614 13.614 13.614 35.687 0 49.297-13.614 13.618-35.687 13.618-49.301 0-13.614-13.61-13.614-35.683 0-49.297 13.614-13.618 35.687-13.618 49.301 0zm197.199 0c13.614 13.614 13.614 35.687 0 49.297-13.614 13.618-35.687 13.618-49.301 0-13.614-13.61-13.614-35.683 0-49.297 13.614-13.618 35.687-13.618 49.301 0zm197.199 0c13.614 13.614 13.614 35.687 0 49.297-13.614 13.618-35.687 13.618-49.301 0-13.614-13.61-13.614-35.683 0-49.297 13.614-13.618 35.687-13.618 49.301 0zM158.111 108.81c13.614 13.618 13.614 35.691 0 49.301-13.614 13.614-35.687 13.614-49.301 0-13.614-13.61-13.614-35.683 0-49.297 13.614-13.618 35.687-13.618 49.301-.004zm197.199 0c13.614 13.618 13.614 35.691 0 49.301-13.614 13.614-35.687 13.614-49.301 0-13.614-13.61-13.614-35.683 0-49.297 13.614-13.618 35.687-13.618 49.301-.004zm-98.599-98.599c13.614 13.618 13.614 35.691 0 49.301-13.614 13.614-35.687 13.614-49.301 0-13.614-13.61-13.614-35.683 0-49.301 13.614-13.614 35.687-13.614 49.301 0z" fill="url(#b)"/></g></svg>