<svg xmlns="http://www.w3.org/2000/svg" viewBox="0 0 800 800"><path d="M733.9 66.1C645.8-22 503.2-22 415.2 66.1L314.3 167l53.1 53.1 100.9-100.9c56-56 150.6-62 212.5 0 62 62 56 156.4 0 212.5L579.9 432.6l53.2 53.2L734 384.9c88-88.1 88-230.7-.1-318.8zM331.8 680.8c-56 56-150.6 62-212.5 0-62-62-56-156.4 0-212.5l100.9-100.9-53.2-53.2L66.1 415.1c-88.1 88.1-88.1 230.7 0 318.7s230.7 88.1 318.7 0l100.9-100.9-53.1-53.1-100.8 101z"/><path d="M561.5 292.7c3.2-3.3 3.2-8.5.1-11.8l-41-41.4a8.55 8.55 0 00-11.8-.1L238.5 507.3c-3.2 3.2-3.2 8.5-.1 11.8l41 41.4c3.2 3.2 8.5 3.2 11.8.1l270.3-267.9z"/></svg>