<svg xmlns="http://www.w3.org/2000/svg" viewBox="0 0 20.438 20.438"><path d="M19 0l-2.656 2.656-.438-.469c-.972-.972-2.25-1.469-3.531-1.469s-2.559.497-3.531 1.469l-.719.688-.906.906L6.438 3 5 4.438l11 11L17.438 14l-.781-.781 1.594-1.625a5.005 5.005 0 000-7.062l-.469-.438 2.656-2.656L19 0zm-6.625 2.719c.768 0 1.535.285 2.125.875l2.344 2.344a2.994 2.994 0 010 4.25l-1.625 1.594L8.657 5.22l1.594-1.625a2.984 2.984 0 012.125-.875zM4.438 5L3 6.438l.781.781-.906.906-.688.719a5.005 5.005 0 000 7.062l.438.469L0 19l1.438 1.438 2.625-2.625.469.438a5.005 5.005 0 007.062 0l1.625-1.594.781.781L15.438 16l-11-11zm.781 3.656l6.562 6.562-1.594 1.625a2.994 2.994 0 01-4.25 0l-2.344-2.344a2.994 2.994 0 010-4.25l1.625-1.594z"/></svg>