<svg xmlns="http://www.w3.org/2000/svg" viewBox="0 0 23.438 23.438"><path d="M22 0l-2.656 2.656-.438-.469c-.972-.972-2.25-1.469-3.531-1.469s-2.559.497-3.531 1.469l-.719.688-.906.906L9.438 3 8 4.438l2.781 2.781L9 9l1.438 1.438 1.781-1.781 2.562 2.562L13 13l1.438 1.438 1.781-1.781L19 15.438 20.438 14l-.781-.781 1.594-1.625a5.005 5.005 0 000-7.062l-.469-.438 2.656-2.656L22 0zm-6.625 2.719c.768 0 1.535.285 2.125.875l2.344 2.344a2.994 2.994 0 010 4.25l-.25.219-1.375 1.375-6.562-6.562 1.594-1.625a2.984 2.984 0 012.125-.875zM4.438 8L3 9.438l.781.781-1.594 1.625a5.005 5.005 0 000 7.062l.438.469L0 22l1.438 1.438 2.625-2.625.469.438a5.005 5.005 0 007.062 0l1.625-1.594.781.781L15.438 19l-11-11zm.781 3.656l6.562 6.562-1.594 1.625a2.994 2.994 0 01-4.25 0l-.219-.25-2.125-2.094a2.994 2.994 0 010-4.25l1.625-1.594z"/></svg>