<svg xmlns="http://www.w3.org/2000/svg" viewBox="0 0 800 800"><path d="M733.9 66.1C645.8-22 503.2-22 415.2 66.1L314.3 167l53.1 53.1 100.9-100.9c56-56 150.6-62 212.5 0 62 62 56 156.4 0 212.5L579.9 432.6l53.2 53.2L734 384.9c88-88.1 88-230.7-.1-318.8zM331.8 680.8c-56 56-150.6 62-212.5 0-62-62-56-156.4 0-212.5l100.9-100.9-53.2-53.2L66.1 415.1c-88.1 88.1-88.1 230.7 0 318.7s230.7 88.1 318.7 0l100.9-100.9-53.1-53.1-100.8 101zm-194-596c-3.3-3.2-8.5-3.2-11.8 0L84.8 126c-3.2 3.3-3.2 8.5 0 11.8l577.5 577.5c3.2 3.2 8.5 3.2 11.8 0l41.2-41.2c3.2-3.2 3.2-8.5 0-11.8L137.8 84.8z"/></svg>