<?xml version="1.0" standalone="no"?>
<!DOCTYPE svg PUBLIC "-//W3C//DTD SVG 20010904//EN"
 "http://www.w3.org/TR/2001/REC-SVG-20010904/DTD/svg10.dtd">
<svg version="1.0" xmlns="http://www.w3.org/2000/svg"
 width="762.000000pt" height="762.000000pt" viewBox="0 0 762.000000 762.000000"
 preserveAspectRatio="xMidYMid meet">
<metadata>
Created by potrace 1.14, written by Peter Selinger 2001-2017
</metadata>
<g transform="translate(0.000000,762.000000) scale(0.100000,-0.100000)"
fill="#000000" stroke="none">
<path d="M3620 7596 c-113 -33 -195 -82 -281 -166 -249 -247 -252 -658 -5
-905 69 -68 100 -92 171 -128 178 -89 392 -88 581 3 161 78 298 250 338 425
75 337 -117 669 -447 770 -103 31 -255 32 -357 1z"/>
<path d="M2282 6855 c-35 -8 -102 -33 -150 -56 -168 -81 -303 -254 -348 -444
-21 -92 -14 -253 15 -345 65 -204 245 -379 448 -436 90 -25 229 -29 320 -9
196 42 366 172 451 345 51 106 70 185 70 298 0 189 -62 339 -197 472 -126 125
-288 191 -464 189 -45 0 -110 -7 -145 -14z"/>
<path d="M4993 6851 c-215 -59 -383 -216 -460 -432 -23 -64 -27 -91 -27 -194
-1 -127 2 -151 29 -230 38 -110 74 -165 171 -261 311 -309 850 -216 1044 181
55 112 70 187 66 320 -4 124 -24 197 -83 305 -66 120 -219 248 -352 295 -67
23 -88 27 -206 31 -87 3 -125 0 -182 -15z"/>
<path d="M915 6040 c-233 -59 -425 -255 -479 -488 -18 -80 -18 -224 0 -304 42
-180 179 -354 344 -436 105 -52 183 -70 300 -70 114 0 194 18 296 68 163 81
286 227 339 405 25 81 29 249 9 335 -54 235 -243 427 -480 490 -90 24 -236 23
-329 0z"/>
<path d="M3645 6040 c-118 -32 -210 -86 -300 -175 -131 -131 -193 -278 -193
-460 -1 -192 58 -336 193 -470 130 -131 280 -193 465 -193 115 0 194 18 300
70 119 59 229 169 288 288 57 116 72 190 68 325 -5 179 -62 310 -191 441 -87
88 -191 147 -320 181 -11 3 -69 7 -130 9 -84 2 -127 -2 -180 -16z"/>
<path d="M6395 6045 c-195 -46 -358 -174 -444 -348 -51 -103 -69 -183 -69
-297 0 -179 59 -327 180 -451 105 -108 179 -152 318 -190 64 -17 245 -20 311
-5 189 44 365 189 450 369 92 199 73 458 -48 642 -15 22 -60 73 -101 113 -83
80 -174 132 -288 162 -80 21 -233 24 -309 5z"/>
<path d="M2262 5259 c-283 -72 -485 -329 -491 -625 -7 -310 209 -589 509 -658
98 -22 260 -15 360 16 128 39 288 169 360 293 113 191 119 432 18 635 -83 167
-255 302 -437 344 -90 20 -230 18 -319 -5z"/>
<path d="M5008 5264 c-192 -45 -368 -189 -448 -367 -58 -130 -75 -294 -43
-432 40 -176 178 -350 343 -433 182 -92 395 -96 577 -12 76 35 120 67 189 135
210 207 253 519 110 790 -44 84 -173 210 -261 257 -136 71 -322 96 -467 62z"/>
<path d="M912 4480 c-218 -57 -390 -222 -464 -444 -27 -80 -34 -255 -13 -343
42 -179 162 -341 319 -427 104 -58 178 -78 301 -82 134 -4 207 12 324 67 163
79 309 263 347 438 3 14 8 69 11 121 10 191 -53 357 -185 489 -139 137 -262
191 -452 197 -90 2 -131 -1 -188 -16z"/>
<path d="M6372 4479 c-216 -55 -390 -222 -464 -443 -29 -87 -33 -266 -8 -360
50 -185 177 -344 340 -424 107 -52 185 -70 300 -70 186 0 333 61 465 193 132
132 193 279 193 465 0 198 -76 366 -224 498 -67 60 -193 125 -281 146 -89 20
-232 18 -321 -5z"/>
<path d="M3655 4454 c-138 -34 -291 -135 -374 -248 -50 -68 -96 -167 -114
-246 -29 -125 -14 -306 34 -406 10 -22 19 -46 19 -52 0 -7 3 -12 8 -12 4 0 14
-15 21 -32 8 -18 51 -70 96 -114 64 -65 99 -90 166 -122 198 -96 402 -96 598
0 166 81 303 254 345 436 18 80 18 220 0 302 -45 196 -204 386 -385 459 -125
50 -295 64 -414 35z"/>
<path d="M2285 3675 c-244 -53 -449 -260 -501 -506 -20 -95 -14 -249 15 -336
73 -223 260 -397 481 -446 231 -52 449 12 617 180 93 93 150 195 178 317 19
81 18 210 -2 299 -39 177 -181 357 -344 435 -140 68 -300 89 -444 57z"/>
<path d="M5039 3674 c-186 -43 -354 -176 -437 -347 -57 -118 -67 -163 -66
-307 0 -111 3 -134 29 -205 57 -161 178 -299 328 -374 100 -50 184 -69 298
-69 367 0 657 288 657 654 0 191 -61 340 -197 474 -87 87 -199 148 -316 175
-81 18 -214 18 -296 -1z"/>
<path d="M933 2895 c-125 -27 -226 -86 -330 -192 -120 -121 -181 -275 -181
-451 0 -243 118 -450 329 -575 98 -58 176 -79 304 -83 237 -7 422 82 561 271
112 152 152 363 103 550 -46 180 -176 342 -339 423 -137 69 -299 89 -447 57z"/>
<path d="M3683 2900 c-133 -27 -236 -84 -338 -185 -185 -183 -239 -425 -156
-693 18 -58 79 -159 133 -217 123 -135 299 -214 480 -215 373 -1 668 291 668
665 0 301 -215 570 -509 638 -69 16 -215 20 -278 7z"/>
<path d="M6371 2889 c-408 -110 -608 -556 -419 -938 85 -172 260 -307 448
-347 87 -18 210 -17 295 3 180 42 351 178 433 343 52 106 70 185 70 300 0 115
-18 194 -70 299 -74 151 -222 277 -389 332 -93 31 -267 35 -368 8z"/>
<path d="M2284 2115 c-300 -66 -514 -336 -514 -650 0 -296 208 -563 495 -634
227 -57 461 6 624 167 99 98 149 185 188 327 13 48 11 232 -3 293 -83 354
-434 575 -790 497z"/>
<path d="M4992 2110 c-117 -31 -206 -83 -297 -175 -132 -132 -193 -278 -193
-463 0 -199 75 -367 222 -498 201 -178 488 -214 736 -92 109 54 226 168 282
273 180 343 38 758 -315 920 -123 56 -300 70 -435 35z"/>
<path d="M3575 1313 c-49 -11 -131 -37 -139 -45 -6 -4 -16 -8 -23 -8 -26 0
-131 -76 -198 -144 -196 -198 -241 -500 -113 -756 53 -104 170 -228 263 -277
119 -62 186 -78 330 -77 114 0 139 4 204 27 106 38 186 89 266 172 78 81 127
163 161 274 20 64 22 92 20 195 -5 193 -58 318 -191 451 -131 131 -260 186
-445 190 -63 2 -124 1 -135 -2z"/>
</g>
</svg>
